<svg width="20" height="20" viewBox="0 0 20 20" fill="none" xmlns="http://www.w3.org/2000/svg">
<path fill-rule="evenodd" clip-rule="evenodd" d="M10 17.5C10.1763 17.5 10.428 17.3856 10.6126 17.2794C15.3374 14.3382 18.3334 10.915 18.3334 7.43464C18.3334 4.54248 16.2941 2.5 13.575 2.5C12.0225 2.5 10.7637 3.21895 10 4.3219C9.25313 3.22712 7.97753 2.5 6.425 2.5C3.70596 2.5 1.66669 4.54248 1.66669 7.43464C1.66669 10.915 4.66266 14.3382 9.39579 17.2794C9.57202 17.3856 9.82379 17.5 10 17.5ZM9.99999 16.1193C9.96642 16.1193 9.90768 16.0785 9.83215 16.0213C6.31587 13.75 3.01778 10.4739 3.01778 7.43469C3.01778 5.26149 4.46122 3.81541 6.40818 3.81541C7.98589 3.81541 8.89224 4.77129 9.42933 5.58828C9.65592 5.91508 9.79858 6.00495 9.99999 6.00495C10.2014 6.00495 10.3273 5.90691 10.5707 5.58828C11.1497 4.78763 12.0225 3.81541 13.5918 3.81541C15.5388 3.81541 16.9822 5.26149 16.9822 7.43469C16.9822 10.4739 13.6841 13.75 10.1762 16.0213C10.0923 16.0785 10.0336 16.1193 9.99999 16.1193Z" fill="red"/>
<path fill-rule="evenodd" clip-rule="evenodd" d="M9.99997 16.1194C9.9664 16.1194 9.90766 16.0785 9.83213 16.0213C6.31585 13.7501 3.01776 10.4739 3.01776 7.43471C3.01776 5.26151 4.4612 3.81543 6.40816 3.81543C7.98587 3.81543 8.89222 4.77131 9.42931 5.58831C9.65589 5.9151 9.79856 6.00497 9.99997 6.00497C10.2014 6.00497 10.3273 5.90693 10.5706 5.58831C11.1497 4.78765 12.0225 3.81543 13.5918 3.81543C15.5387 3.81543 16.9822 5.26151 16.9822 7.43471C16.9822 10.4739 13.6841 13.7501 10.1762 16.0213C10.0923 16.0785 10.0335 16.1194 9.99997 16.1194Z" fill="red"/>
</svg>
